<?xml version="1.0" standalone="no"?>
<!DOCTYPE svg PUBLIC "-//W3C//DTD SVG 20010904//EN"
 "http://www.w3.org/TR/2001/REC-SVG-20010904/DTD/svg10.dtd">
<svg version="1.0" xmlns="http://www.w3.org/2000/svg"
 width="512.000000pt" height="512.000000pt" viewBox="0 0 512.000000 512.000000"
 preserveAspectRatio="xMidYMid meet">
<metadata>
Created by potrace 1.11, written by Peter Selinger 2001-2013
</metadata>
<g transform="translate(0.000000,512.000000) scale(0.100000,-0.100000)"
fill="#000000" stroke="none">
<path d="M8 5068 c-6 -69 -1 -515 5 -548 3 -14 8 -52 12 -85 57 -516 259 -996
550 -1303 37 -38 55 -65 55 -82 -1 -86 -58 -311 -115 -450 -32 -79 -38 -94
-40 -100 -1 -3 -6 -16 -12 -30 -6 -14 -18 -44 -28 -67 -43 -108 -134 -268
-228 -401 -125 -180 -154 -228 -183 -310 -26 -75 -24 -138 6 -187 80 -130 303
-367 680 -725 216 -204 332 -300 495 -407 170 -111 273 -151 462 -179 43 -6
198 -32 229 -38 32 -6 107 -27 129 -36 22 -9 156 -49 245 -74 151 -43 323 -53
450 -28 30 7 66 13 80 16 46 7 144 35 267 75 104 34 237 64 383 85 232 35 364
95 615 285 219 165 773 702 946 916 108 135 127 199 85 291 -25 53 -82 151
-96 164 -28 25 -185 281 -242 393 -131 263 -216 508 -245 712 -3 22 -8 59 -12
83 -6 43 -5 45 57 110 99 106 232 302 296 437 13 28 33 70 44 95 57 119 148
422 167 555 4 22 8 47 10 55 6 20 14 82 29 226 14 128 15 571 2 593 -15 23
-230 5 -416 -36 -284 -62 -525 -190 -723 -384 -56 -55 -103 -99 -105 -99 -2 0
-39 33 -81 73 -259 242 -612 403 -979 445 -82 10 -443 8 -512 -2 -318 -46
-579 -153 -822 -336 -57 -43 -127 -102 -156 -132 l-52 -54 -104 102 c-206 202
-480 345 -766 399 -91 17 -152 24 -272 30 l-106 5 -4 -52z"/>
</g>
</svg>
